<svg width="33" height="32" viewBox="0 0 33 32" fill="none" xmlns="http://www.w3.org/2000/svg">
<g clip-path="url(#clip0_16_131)">
<path d="M16.4444 2.88125C20.8382 2.88125 21.3585 2.9 23.0865 2.975C24.6924 3.04375 25.5595 3.30625 26.1377 3.525C26.9021 3.8125 27.4545 4.1625 28.0262 4.71875C28.6043 5.28125 28.9576 5.8125 29.2531 6.55625C29.478 7.11875 29.7477 7.96875 29.8184 9.525C29.8955 11.2125 29.9148 11.7188 29.9148 15.9875C29.9148 20.2625 29.8955 20.7688 29.8184 22.45C29.7477 24.0125 29.478 24.8563 29.2531 25.4188C28.9576 26.1625 28.5979 26.7 28.0262 27.2562C27.4481 27.8187 26.9021 28.1625 26.1377 28.45C25.5595 28.6688 24.6859 28.9312 23.0865 29C21.3521 29.075 20.8318 29.0937 16.4444 29.0937C12.0507 29.0937 11.5304 29.075 9.80243 29C8.19653 28.9312 7.32934 28.6688 6.75121 28.45C5.98681 28.1625 5.43437 27.8125 4.86267 27.2562C4.28455 26.6937 3.93125 26.1625 3.63576 25.4188C3.41094 24.8563 3.14115 24.0063 3.07049 22.45C2.9934 20.7625 2.97413 20.2563 2.97413 15.9875C2.97413 11.7125 2.9934 11.2062 3.07049 9.525C3.14115 7.9625 3.41094 7.11875 3.63576 6.55625C3.93125 5.8125 4.29097 5.275 4.86267 4.71875C5.4408 4.15625 5.98681 3.8125 6.75121 3.525C7.32934 3.30625 8.20295 3.04375 9.80243 2.975C11.5304 2.9 12.0507 2.88125 16.4444 2.88125ZM16.4444 0C11.98 0 11.4212 0.01875 9.66753 0.09375C7.92031 0.16875 6.7191 0.44375 5.67847 0.8375C4.59288 1.25 3.67431 1.79375 2.76215 2.6875C1.84358 3.575 1.28472 4.46875 0.860764 5.51875C0.456076 6.5375 0.173438 7.7 0.0963542 9.4C0.0192708 11.1125 0 11.6562 0 16C0 20.3437 0.0192708 20.8875 0.0963542 22.5937C0.173438 24.2937 0.456076 25.4625 0.860764 26.475C1.28472 27.5312 1.84358 28.425 2.76215 29.3125C3.67431 30.2 4.59288 30.75 5.67205 31.1562C6.7191 31.55 7.91389 31.825 9.66111 31.9C11.4148 31.975 11.9736 31.9937 16.438 31.9937C20.9024 31.9937 21.4613 31.975 23.2149 31.9C24.9622 31.825 26.1634 31.55 27.204 31.1562C28.2832 30.75 29.2017 30.2 30.1139 29.3125C31.026 28.425 31.5913 27.5312 32.0089 26.4813C32.4135 25.4625 32.6962 24.3 32.7733 22.6C32.8503 20.8937 32.8696 20.35 32.8696 16.0063C32.8696 11.6625 32.8503 11.1187 32.7733 9.4125C32.6962 7.7125 32.4135 6.54375 32.0089 5.53125C31.6042 4.46875 31.0453 3.575 30.1267 2.6875C29.2146 1.8 28.296 1.25 27.2168 0.84375C26.1698 0.45 24.975 0.175 23.2278 0.1C21.4677 0.01875 20.9089 0 16.4444 0Z" fill="black"/>
<path d="M16.4445 7.78125C11.7809 7.78125 7.99741 11.4625 7.99741 16C7.99741 20.5375 11.7809 24.2188 16.4445 24.2188C21.108 24.2188 24.8915 20.5375 24.8915 16C24.8915 11.4625 21.108 7.78125 16.4445 7.78125ZM16.4445 21.3312C13.4189 21.3312 10.9651 18.9438 10.9651 16C10.9651 13.0563 13.4189 10.6687 16.4445 10.6687C19.47 10.6687 21.9238 13.0563 21.9238 16C21.9238 18.9438 19.47 21.3312 16.4445 21.3312Z" fill="black"/>
<path d="M27.1976 7.45617C27.1976 8.51867 26.3111 9.37492 25.2255 9.37492C24.1335 9.37492 23.2535 8.51242 23.2535 7.45617C23.2535 6.39367 24.1399 5.53741 25.2255 5.53741C26.3111 5.53741 27.1976 6.39992 27.1976 7.45617Z" fill="black"/>
</g>
<defs>
<clipPath id="clip0_16_131">
<rect width="32.8889" height="32" fill="white"/>
</clipPath>
</defs>
</svg>
